<svg xmlns="http://www.w3.org/2000/svg" width="181" height="25" viewBox="0 0 231 34" class="colortoken-logo">
<g fill="none" fill-rule="evenodd">
<path fill="#fff" d="M41.037 9.67a8.063 8.063 0 0 0-2.671 1.832 8.606 8.606 0 0 0-1.74 2.699A8.647 8.647 0 0 0 36 17.5v.047a8.73 8.73 0 0 0 .626 3.311c.42 1.032 1 1.929 1.74 2.689a8.19 8.19 0 0 0 2.648 1.796c1.022.439 2.129.657 3.321.657.79 0 1.5-.067 2.137-.199a7.603 7.603 0 0 0 1.752-.587 7.787 7.787 0 0 0 1.477-.927c.448-.362.883-.768 1.299-1.222l-2.276-2.325a9.09 9.09 0 0 1-1.916 1.41c-.642.343-1.427.515-2.357.515a4.402 4.402 0 0 1-1.914-.41 4.535 4.535 0 0 1-1.49-1.115 5.267 5.267 0 0 1-.96-1.643 5.666 5.666 0 0 1-.348-1.997v-.047c0-.705.114-1.366.347-1.982.233-.62.556-1.163.976-1.634a4.467 4.467 0 0 1 3.389-1.504c.82 0 1.558.165 2.218.494.657.328 1.302.783 1.94 1.364l2.275-2.654a9.557 9.557 0 0 0-1.208-1.034 7.456 7.456 0 0 0-1.417-.798 8.593 8.593 0 0 0-1.704-.517A10.65 10.65 0 0 0 44.474 9c-1.253 0-2.398.224-3.437.67zM59.108 9.667a8.213 8.213 0 0 0-2.695 1.833 8.525 8.525 0 0 0-1.773 2.7 8.544 8.544 0 0 0-.64 3.3v.047c0 1.174.209 2.274.631 3.3a8.088 8.088 0 0 0 1.758 2.675 8.405 8.405 0 0 0 2.685 1.809c1.035.447 2.17.669 3.406.669 1.231 0 2.372-.222 3.414-.67a8.215 8.215 0 0 0 2.697-1.83 8.516 8.516 0 0 0 1.769-2.7 8.488 8.488 0 0 0 .64-3.3v-.047a8.645 8.645 0 0 0-.628-3.3 8.076 8.076 0 0 0-1.758-2.676 8.472 8.472 0 0 0-2.685-1.81C64.893 9.222 63.758 9 62.523 9c-1.233 0-2.373.222-3.415.667zm1.463 12.59a4.874 4.874 0 0 1-1.533-1.118 5.023 5.023 0 0 1-1.005-1.642 5.698 5.698 0 0 1-.354-1.998v-.046c0-.705.121-1.366.354-1.984a5.253 5.253 0 0 1 .985-1.633 4.472 4.472 0 0 1 1.508-1.103 4.682 4.682 0 0 1 1.954-.401 4.6 4.6 0 0 1 1.942.413 4.84 4.84 0 0 1 1.54 1.113 4.94 4.94 0 0 1 1.005 1.647c.237.625.354 1.29.354 1.994v.048c0 .706-.117 1.367-.354 1.984a5.169 5.169 0 0 1-.983 1.633 4.385 4.385 0 0 1-1.518 1.101c-.595.268-1.242.4-1.943.4-.716 0-1.368-.135-1.953-.409zM75 9v17h12v-3.376h-8.326V9zM94.106 9.667A8.212 8.212 0 0 0 91.41 11.5 8.504 8.504 0 0 0 89 17.5v.048c0 1.174.208 2.274.628 3.3a8.06 8.06 0 0 0 1.76 2.675 8.414 8.414 0 0 0 2.684 1.809c1.035.447 2.17.669 3.405.669 1.234 0 2.372-.222 3.417-.67a8.248 8.248 0 0 0 2.697-1.83A8.526 8.526 0 0 0 106 17.5v-.046c0-1.175-.21-2.274-.628-3.3a8.09 8.09 0 0 0-1.76-2.676 8.464 8.464 0 0 0-2.684-1.81C99.893 9.222 98.758 9 97.522 9c-1.233 0-2.37.222-3.416.667zm1.464 12.59a4.91 4.91 0 0 1-1.533-1.118 5.01 5.01 0 0 1-1.004-1.642 5.65 5.65 0 0 1-.354-1.998v-.046c0-.705.118-1.366.354-1.984a5.232 5.232 0 0 1 .981-1.633c.421-.468.923-.837 1.509-1.103a4.682 4.682 0 0 1 1.954-.401c.7 0 1.348.139 1.943.413a4.854 4.854 0 0 1 1.54 1.113c.437.47.77 1.018 1.006 1.647.239.625.355 1.29.355 1.994v.048c0 .706-.116 1.367-.355 1.984a5.204 5.204 0 0 1-.981 1.633c-.42.468-.925.837-1.52 1.101-.595.268-1.242.4-1.943.4-.715 0-1.366-.135-1.952-.409zM110 9v17h3.562v-5.441h2.803L119.84 26H124l-3.953-6.07a5.58 5.58 0 0 0 2.508-1.908c.642-.866.962-1.987.962-3.364v-.048c0-1.62-.465-2.915-1.39-3.886-1.095-1.15-2.668-1.724-4.72-1.724H110zm3.562 3.375h3.542c.88 0 1.567.202 2.063.607.492.405.74 1.012.74 1.822v.048c0 .728-.236 1.312-.709 1.748-.468.438-1.144.657-2.024.657h-3.612v-4.882zM126 9v3.449h4.772V26h3.453V12.449H139V9zM147.106 9.667a8.197 8.197 0 0 0-2.693 1.833 8.519 8.519 0 0 0-1.775 2.7 8.543 8.543 0 0 0-.638 3.3v.047c0 1.174.21 2.274.632 3.3a8.093 8.093 0 0 0 1.755 2.675 8.445 8.445 0 0 0 2.685 1.809c1.036.447 2.174.669 3.409.669 1.23 0 2.372-.222 3.413-.67a8.256 8.256 0 0 0 2.7-1.83 8.646 8.646 0 0 0 1.768-2.7 8.5 8.5 0 0 0 .638-3.3v-.047a8.606 8.606 0 0 0-.628-3.3 8.076 8.076 0 0 0-1.76-2.676 8.475 8.475 0 0 0-2.68-1.81c-1.04-.445-2.173-.667-3.41-.667-1.233 0-2.372.222-3.416.667zm1.464 12.59a4.901 4.901 0 0 1-1.53-1.118 4.966 4.966 0 0 1-1.007-1.642 5.698 5.698 0 0 1-.354-1.998v-.046c0-.705.121-1.366.354-1.984a5.186 5.186 0 0 1 .985-1.633c.42-.468.919-.837 1.509-1.103a4.682 4.682 0 0 1 1.954-.401c.697 0 1.344.139 1.943.413.59.273 1.106.645 1.539 1.113a4.94 4.94 0 0 1 1.005 1.647c.235.625.353 1.29.353 1.994v.048c0 .706-.118 1.367-.353 1.984a5.208 5.208 0 0 1-.982 1.633 4.36 4.36 0 0 1-1.521 1.101c-.593.268-1.24.4-1.943.4-.715 0-1.366-.135-1.952-.409zM172.626 9l-6.242 7.432V9H163v17h3.384v-5.197l1.78-2.04L172.938 26H177l-6.548-9.786L176.714 9zM180 9v17h12v-3.325h-8.57v-3.572h7.443v-3.327h-7.443v-3.448h8.46V9zM206.58 9v10.466L199.194 9H196v17h3.422V15.193L207.049 26H210V9zM218.05 9.353a5.28 5.28 0 0 0-1.815 1.015c-.505.44-.9.965-1.18 1.57-.278.606-.418 1.287-.418 2.044v.046c0 .82.128 1.504.384 2.055.264.55.626 1.01 1.102 1.382.467.367 1.041.678 1.715.931.676.252 1.433.48 2.265.685.692.174 1.253.339 1.685.497.43.156.772.313 1.013.471.243.158.409.328.496.508.089.18.129.388.129.626v.046c0 .488-.207.87-.623 1.146-.414.276-1 .413-1.751.413a6.175 6.175 0 0 1-2.598-.543 10.8 10.8 0 0 1-2.317-1.465L214 23.354a9.727 9.727 0 0 0 3.292 1.996c1.204.433 2.436.65 3.688.65.894 0 1.708-.115 2.441-.344.735-.228 1.37-.558 1.898-.99a4.509 4.509 0 0 0 1.238-1.607c.296-.636.443-1.364.443-2.184v-.045c0-.727-.116-1.347-.343-1.867a3.793 3.793 0 0 0-1.012-1.358 6.211 6.211 0 0 0-1.652-.991 16.512 16.512 0 0 0-2.228-.744c-.707-.19-1.29-.353-1.755-.496-.463-.142-.83-.292-1.093-.447-.272-.159-.455-.337-.558-.534a1.536 1.536 0 0 1-.153-.695v-.048c0-.408.178-.75.529-1.027.356-.275.883-.412 1.587-.412.705 0 1.413.145 2.116.435.708.292 1.427.69 2.163 1.194l1.882-2.74a9.607 9.607 0 0 0-2.788-1.559c-1.01-.36-2.119-.541-3.325-.541-.843 0-1.62.116-2.32.353z"></path>
<path fill="#D22630" d="M13 17.5c0 3.035 2.38 5.5 5.312 5.5 1.752 0 3.307-.879 4.274-2.234l8.862.778c.714-2.61.727-5.221.086-7.83l-8.948.52C21.619 12.88 20.064 12 18.312 12 15.38 12 13 14.464 13 17.5z"></path>
<path fill="#D22630" d="M4 15.03h4.811c.901-4.157 4.588-7.274 8.995-7.274 1.73 0 3.35.48 4.732 1.315L29 8.655C26.46 5.225 22.389 3 17.806 3 10.777 3 4.955 8.235 4 15.03zM4.14 19.784C5.426 26.178 11.06 31 17.806 31c4.583 0 8.651-2.223 11.194-5.655l-6.433-.435a9.137 9.137 0 0 1-4.76 1.334c-4.114 0-7.603-2.72-8.78-6.46H4.14z"></path>
</g>
</svg> 