<svg xmlns="http://www.w3.org/2000/svg" width="24" height="24" viewBox="0 0 24 24">
    <g fill="#D7282F" fill-rule="evenodd">
        <path d="M15.713 14.775c-1.192 1.624-3.292 2.298-5.206 1.671-1.915-.627-3.21-2.413-3.21-4.428 0-2.014 1.295-3.8 3.21-4.427 1.914-.627 4.014.047 5.206 1.671l7.884-.441c.565 2.182.537 4.476-.083 6.643l-7.801-.689z"/>
        <path d="M4.162 10.31H0C.71 5.485 4.256 1.562 8.984.368c4.729-1.195 9.712.575 12.628 4.484l-5.6.358c-2.193-1.313-4.883-1.493-7.231-.483-2.348 1.01-4.068 3.088-4.622 5.583h.003zm17.449 8.849c-2.843 3.806-7.653 5.592-12.291 4.563-4.638-1.029-8.242-4.68-9.209-9.332h4.218c.743 2.317 2.503 4.167 4.779 5.026 2.276.86 4.82.632 6.908-.616l5.595.359z"/>
    </g>
</svg>
