<svg xmlns="http://www.w3.org/2000/svg" height="100%" style="fill-rule:nonzero;clip-rule:evenodd;stroke-linecap:round;stroke-linejoin:round;" version="1.1" viewBox="0 0 201.88 58.77" width="100%" xml:space="preserve">
<g>
<path d="M19.9253 58.7663C19.8876 58.7385 19.8459 58.7037 19.8022 58.6655C19.0941 57.788 14.7153 52.3026 10.2536 45.2671C8.91533 43.0252 8.04632 41.2768 8.21317 40.8246C8.64966 39.6491 16.428 39.0056 18.8234 40.0714C19.5519 40.3949 19.5335 40.8232 19.5335 41.0726C19.5335 42.1488 19.4804 45.0365 19.4804 45.0365C19.4809 45.6333 19.9661 46.1172 20.5634 46.1162C21.1618 46.1162 21.645 45.6303 21.643 45.0321L21.6306 37.8365L21.6286 37.8365C21.6286 37.212 20.9468 37.0559 20.8187 37.0316C19.5683 37.0256 17.0293 37.0172 14.3031 37.0172C8.28766 37.0172 6.94343 37.2641 5.92149 36.5959C3.70727 35.148 0.0867513 25.3896 0.00233389 19.8993C-0.117837 12.1537 4.47149 5.44809 10.9339 2.12557C13.6338 0.766161 16.6832 0 19.904 0C30.1324 0 38.5558 7.72024 39.6765 17.653C39.6775 17.6614 39.6775 17.6709 39.6795 17.6793C39.8851 20.0807 26.6504 20.5909 24.0325 19.8924C23.6313 19.785 23.5285 19.3741 23.5285 19.1972C23.5255 17.3713 23.5131 12.2327 23.5131 12.2327C23.5111 11.6355 23.0259 11.1511 22.4286 11.1526L22.4276 11.1526C21.8312 11.1536 21.347 11.639 21.347 12.2372L21.3684 21.7029C21.3868 22.2992 21.8873 22.4601 22.0244 22.487C23.5131 22.4875 26.9946 22.484 30.2372 22.484C34.6199 22.484 36.4607 22.9918 37.6858 23.9244C38.5002 24.5455 38.8155 25.7345 38.5399 27.2797C36.0823 41.0259 20.5103 58.0563 19.9253 58.7663ZM62.1583 26.6841C66.0872 28.3679 68.5214 30.2361 68.5214 34.3367C68.5214 38.5258 65.3483 41.2317 60.4387 41.2317C56.4601 41.2317 53.2667 39.4296 51.6761 36.2864L51.4189 35.7796L56.0966 33.0692L56.403 33.5701C57.4562 35.2917 58.6336 36.0256 60.3418 36.0256C61.8142 36.0256 62.8033 35.3732 62.8033 34.4013C62.8033 33.3246 62.0873 32.9212 59.8741 31.9523L58.7493 31.4698C55.7475 30.1904 52.9667 28.4126 52.9667 24.1068C52.9667 20.2373 55.9328 17.5348 60.1799 17.5348C63.3977 17.5348 65.603 18.7805 67.121 21.4536L67.4026 21.95L62.8704 24.8626L62.558 24.3036C61.8003 22.9482 61.0867 22.6764 60.1799 22.6764C59.232 22.6764 58.6212 23.1991 58.6212 24.0099C58.6212 24.9416 59.0711 25.3505 61.0321 26.2001L62.1583 26.6841ZM95.2687 27.4769L98.5709 18.2691L104.239 18.2691L95.8388 41.6116L94.5799 41.6116L89.4846 30.6797C89.2477 30.1788 89.0034 29.5568 88.7929 28.9869C88.5774 29.5578 88.3271 30.1813 88.0897 30.6822L82.7953 41.6116L81.5449 41.6116L73.0103 18.2691L79.065 18.2691L82.4035 27.4769C82.6165 28.0642 82.835 28.7802 83.0262 29.4445C83.2531 28.7588 83.5257 28.0185 83.8108 27.4217L88.1955 18.0768L89.4086 18.0768L93.8614 27.4227C94.1454 28.019 94.4191 28.7598 94.645 29.4455C94.8372 28.7802 95.0572 28.0642 95.2687 27.4769ZM110.849 40.9414L110.849 17.7921L116.569 17.7921L116.569 40.9414L110.849 40.9414ZM135.325 33.1636L135.325 27.9903L145.947 27.9903L145.947 38.3653L145.728 38.5461C144.513 39.5438 141.291 41.2317 136.927 41.2317C129.564 41.2317 124.424 36.353 124.424 29.3676C124.424 22.5114 129.384 17.5348 136.218 17.5348C139.976 17.5348 142.73 18.5942 144.637 20.7739L145.009 21.1997L141.11 25.0598L140.687 24.6236C139.598 23.5007 138.47 22.8051 136.218 22.8051C132.717 22.8051 130.272 25.5035 130.272 29.3676C130.272 33.3927 132.883 35.9943 136.927 35.9943C138.268 35.9943 139.664 35.7632 140.615 35.394L140.615 33.1636L135.325 33.1636ZM164.315 33.1636L164.315 27.9903L174.937 27.9903L174.937 38.3653L174.717 38.5461C173.501 39.5438 170.28 41.2317 165.917 41.2317C158.554 41.2317 153.413 36.353 153.413 29.3676C153.413 22.5114 158.374 17.5348 165.206 17.5348C168.966 17.5348 171.721 18.5942 173.626 20.7739L174 21.1997L170.102 25.0598L169.677 24.6236C168.588 23.5007 167.459 22.8051 165.206 22.8051C161.707 22.8051 159.262 25.5035 159.262 29.3676C159.262 33.3927 161.874 35.9943 165.917 35.9943C167.258 35.9943 168.654 35.7632 169.604 35.394L169.604 33.1636L164.315 33.1636ZM195.898 17.7922L201.877 17.7922L193.67 33.1964L193.67 40.9415L187.919 40.9415L187.919 33.5253L179.176 17.7922L185.556 17.7922L189.596 25.1731C190.031 25.976 190.485 27.0373 190.828 27.8989C191.156 27.0443 191.589 25.9924 192.021 25.1801L195.898 17.7922Z" fill="#fc8019" opacity="1"/>
</g>
</svg>
