<svg xmlns="http://www.w3.org/2000/svg" fill="none" viewBox="0 0 45.42 48">
    <title>Cypress</title>
    <path d="M0.854023 30.3588C0.288116 28.2979 0 26.1573 0 24.0013C0 14.1592 6.18126 5.16 15.3824 1.61121L16.5888 4.73343C8.66867 7.78884 3.34915 15.5314 3.34915 24.0013C3.34915 25.8592 3.59608 27.6991 4.08225 29.4722L0.854023 30.3588Z" fill="#69D3A7"/>
    <path d="M42.4508 14.4933C38.8702 7.61925 31.822 3.34836 24.0614 3.34836C21.3116 3.34836 18.639 3.87772 16.1233 4.91846L14.8397 1.82707C17.7644 0.616732 20.8666 0 24.0614 0C33.0773 0 41.2624 4.95958 45.4218 12.9463L42.4508 14.4933Z" fill="url(#paint0_linear_1375_10683)"/>
    <path d="M16.877 19.0494C18.819 19.0494 20.401 20.085 21.2139 21.8915L21.2782 22.0329L24.5398 20.9253L24.4704 20.7583C23.2074 17.6823 20.2981 15.7704 16.877 15.7704C14.4718 15.7704 12.5169 16.5414 10.9015 18.1243C9.29634 19.697 8.48352 21.6757 8.48352 24.0064C8.48352 26.3166 9.29634 28.285 10.9015 29.8577C12.5169 31.4407 14.4718 32.2116 16.877 32.2116C20.2981 32.2116 23.2074 30.2997 24.4704 27.2263L24.5398 27.0593L21.273 25.9491L21.2113 26.0956C20.4833 27.8713 18.8628 28.9326 16.877 28.9326C15.5239 28.9326 14.3818 28.4598 13.4763 27.5295C12.5606 26.5864 12.0976 25.4018 12.0976 24.009C12.0976 22.6059 12.5503 21.4444 13.4763 20.4576C14.3792 19.5223 15.5239 19.0494 16.877 19.0494Z" fill="#1B1E2E"/>
    <path d="M37.3061 16.0737L32.658 27.8353L27.979 16.0737H24.1514L30.7133 32.1268L26.0446 43.449L29.3912 44.1146L40.9228 16.0737H37.3061Z" fill="#1B1E2E"/>
    <path d="M26.6434 41.9894L25.828 43.963C25.6659 44.3536 25.2955 44.6182 24.8788 44.6362C24.6036 44.6465 24.3258 44.6542 24.0454 44.6542C14.4481 44.6491 5.95693 37.883 3.85278 28.56L0.585938 29.2975C1.76663 34.5269 4.72994 39.2732 8.93051 42.6653C13.18 46.0958 18.5329 47.9897 24.0094 48C24.0171 48 24.0582 48 24.0582 48C24.3798 48 24.6987 47.9923 25.0177 47.9795C26.736 47.9075 28.2717 46.8308 28.9276 45.235L29.9925 42.655L26.6434 41.9894Z" fill="url(#paint1_linear_1375_10683)"/>
    <defs>
      <linearGradient id="paint0_linear_1375_10683" x1="21.5577" y1="-1.54942" x2="39.8226" y2="17.9723" gradientUnits="userSpaceOnUse">
        <stop offset="0.0939" stop-color="#58D09E"/>
        <stop offset="0.9883" stop-color="#58D09E" stop-opacity="0"/>
      </linearGradient>
      <linearGradient id="paint1_linear_1375_10683" x1="-0.256416" y1="34.9215" x2="34.638" y2="44.2092" gradientUnits="userSpaceOnUse">
        <stop offset="0.0774" stop-color="#58D09E"/>
        <stop offset="0.7617" stop-color="#1B1E2E"/>
      </linearGradient>
    </defs>
  </svg>