<svg xmlns="http://www.w3.org/2000/svg" xmlns:vectornator="http://vectornator.io" xmlns:xlink="http://www.w3.org/1999/xlink" style="fill-rule:nonzero;clip-rule:evenodd;stroke-linecap:round;stroke-linejoin:round;" version="1.1" xml:space="preserve" viewBox="2.04 6.99 71 67.23">
<metadata>
<vectornator:setting key="IsTimeLapseWatermarkDisabled" value="false"/>
<vectornator:setting key="UndoHistoryDisabled" value="true"/>
<vectornator:setting key="VNDimensionsVisible" value="true"/>
<vectornator:setting key="VNSnapToGuides" value="true"/>
<vectornator:setting key="WDCMYKEnabledKey" value="false"/>
<vectornator:setting key="WDDisplayWhiteBackground" value="false"/>
<vectornator:setting key="WDDynamicGuides" value="false"/>
<vectornator:setting key="WDGuidesVisible" value="true"/>
<vectornator:setting key="WDIsolateActiveLayer" value="false"/>
<vectornator:setting key="WDOutlineMode" value="false"/>
<vectornator:setting key="WDRulersVisible" value="true"/>
<vectornator:setting key="WDSnapToEdges" value="false"/>
<vectornator:setting key="WDSnapToGrid" value="false"/>
<vectornator:setting key="WDSnapToPoints" value="false"/>
<vectornator:setting key="WDUnits" value="Points"/>
</metadata>
<defs/>
<g id="Untitled" vectornator:layerName="Untitled">
<path d="M25.7856 10.893C24.5691 7.18629 25.2268 7.02566 27.7586 10.4111C27.1715 10.8614 26.5138 11.0221 25.7856 10.893Z" fill="#191919" fill-rule="evenodd" opacity="0.007"/>
<path d="M54.3837 8.04027C53.7264 8.03876 53.397 8.36227 53.3955 9.01082C50.9557 8.76522 50.9572 8.11668 53.4 7.06518C53.9979 7.18678 54.3257 7.5118 54.3837 8.04027Z" fill="#bda634" fill-rule="evenodd" opacity="0.004"/>
<path d="M16.9147 9.89977C17.8976 11.1991 18.8836 11.2014 19.8724 9.90657C21.1877 9.58532 21.1884 9.26104 19.8747 8.93375C19.7476 8.08083 20.0778 7.43304 20.8651 6.99038C22.5229 8.40736 24.163 9.70824 25.7856 10.893C28.0991 12.565 29.0798 14.8372 28.7277 17.7095C28.1921 17.7667 27.8628 18.0901 27.7396 18.6801C29.3641 19.3138 30.6763 20.2897 31.6765 21.6076C30.1141 24.4971 28.7929 27.4125 27.7127 30.3539C28 27.167 27.6783 24.0856 26.7481 21.1099C23.1907 21.0765 19.9061 20.2582 16.8946 18.6551C16.2199 19.0064 15.562 19.3293 14.9205 19.6234C14.2845 17.7394 13.9604 15.793 13.9481 13.7842C15.4044 14.0425 16.7198 13.7213 17.8939 12.8205C11.1271 11.3836 8.16346 13.971 9.00286 20.5826C7.77055 20.6551 6.94747 21.3017 6.53362 22.5226C6.03489 25.7481 5.86311 28.9905 6.0183 32.2497C5.68967 32.2489 5.36103 32.2482 5.0324 32.2474C4.50266 29.0231 4.01717 25.7793 3.5759 22.5158C3.07957 25.0888 2.90929 27.6826 3.06506 30.2972C2.73642 30.2965 2.40778 30.2957 2.07915 30.295C2.0866 27.0523 2.09406 23.8095 2.10152 20.5668C3.69716 20.0471 5.34108 19.7266 7.03329 19.6053C6.79053 15.7207 8.44004 12.9682 11.9818 11.3477C11.3253 11.0219 10.6688 10.6961 10.0123 10.3703C11.6345 8.09883 13.6082 7.29268 15.9333 7.95186C13.3364 9.40964 13.6635 10.0589 16.9147 9.89977Z" fill="#1d2520" fill-rule="evenodd" opacity="0.371"/>
<path d="M19.8747 8.93375C19.8739 9.25802 19.8732 9.5823 19.8724 9.90657C18.8865 9.9043 17.9006 9.90203 16.9147 9.89977C17.1139 6.49063 18.1006 6.16863 19.8747 8.93375Z" fill="#1d1d1d" fill-rule="evenodd" opacity="0.006"/>
<path d="M69.1633 11.9656C68.7213 16.2858 66.4141 19.199 62.2418 20.7051C59.8085 16.7872 58.4939 16.7841 58.2982 20.696C57.078 20.2628 56.0935 19.612 55.345 18.7436C54.9124 15.9558 55.5753 13.5253 57.3335 11.4519C54.0298 12.1063 51.8888 14.2091 50.9106 17.7605C50.2488 19.7047 50.2444 21.6503 50.8972 23.5975C51.228 22.6254 51.559 21.6533 51.8898 20.6813C52.0082 22.5549 52.8257 24.3403 54.3423 26.0374C53.4382 26.3994 52.6154 26.8839 51.8742 27.491C48.9744 24.1279 47.8331 20.234 48.4503 15.8092C50.4278 13.4093 52.733 11.3068 55.3662 9.50176C60.3408 8.58345 64.9398 9.40471 69.1633 11.9656Z" fill="#2c2121" fill-rule="evenodd" opacity="1"/>
<path d="M18.8821 11.8499C24.9989 10.7605 27.2942 13.0357 25.7678 18.6755C24.1898 19.6299 22.5462 19.7882 20.8371 19.1506C21.879 17.8031 22.0467 16.3443 21.3401 14.7741C19.9444 14.2087 19.125 13.234 18.8821 11.8499Z" fill="#f0eff0" fill-rule="evenodd" opacity="0.995"/>
<path d="M69.1633 11.9656C64.9398 9.40471 60.3408 8.58345 55.3662 9.50176C52.733 11.3068 50.4278 13.4093 48.4503 15.8092C49.3896 12.9817 51.038 10.7156 53.3955 9.01082C54.0528 9.01233 54.3822 8.68882 54.3837 8.04027C60.2499 6.20262 65.1765 7.51104 69.1633 11.9656Z" fill="#c34037" fill-rule="evenodd" opacity="0.682"/>
<path d="M14.9205 19.6234C13.1218 21.5271 11.1492 21.8468 9.00286 20.5826C8.16346 13.971 11.1271 11.3836 17.8939 12.8205C16.7198 13.7213 15.4044 14.0425 13.9481 13.7842C13.9604 15.793 14.2845 17.7394 14.9205 19.6234Z" fill="#c3c2c1" fill-rule="evenodd" opacity="0.996"/>
<path d="M28.7277 17.7095C29.5091 16.6329 30.005 15.3369 30.2155 13.8216C30.9978 15.5345 30.8299 17.1555 29.7114 18.6846C29.1135 18.563 28.7857 18.238 28.7277 17.7095Z" fill="#0d0d0d" fill-rule="evenodd" opacity="0.016"/>
<path d="M5.07042 15.7095C6.32636 16.5747 6.32412 17.5475 5.06371 18.6279C4.48659 17.9131 4.48883 16.9403 5.07042 15.7095Z" fill="#000000" fill-rule="evenodd" opacity="0.019"/>
<path d="M69.1633 11.9656C73.5756 16.592 74.2209 21.7819 71.0993 27.5352C70.442 27.5337 70.1127 27.8572 70.1112 28.5058C69.4539 28.5042 69.1245 28.8277 69.123 29.4763C68.4657 29.4748 68.1364 29.7983 68.1349 30.4469C67.4776 30.4453 67.1483 30.7688 67.1468 31.4174C63.2665 32.2448 59.3221 32.56 55.3136 32.363C55.3144 32.0388 55.3151 31.7144 55.3159 31.3902C56.6304 31.3932 57.945 31.3963 59.2595 31.3993C59.5677 27.5742 58.0956 24.6523 54.8431 22.6337C54.0923 21.1088 54.2597 19.812 55.345 18.7436C56.0935 19.612 57.078 20.2628 58.2982 20.696C58.4939 16.7841 59.8085 16.7872 62.2418 20.7051C66.4141 19.199 68.7213 16.2858 69.1633 11.9656Z" fill="#bc4536" fill-rule="evenodd" opacity="1"/>
<path d="M27.7127 30.3539C26.3252 30.811 25.6656 31.7823 25.7342 33.2678C24.0387 34.7473 22.0646 35.7156 19.8121 36.1727C17.5116 36.1674 15.2111 36.1621 12.9107 36.1568C10.4791 35.1117 8.18168 33.8093 6.0183 32.2497C5.86311 28.9905 6.03489 25.7481 6.53362 22.5226C6.94747 21.3017 7.77055 20.6551 9.00286 20.5826C11.1492 21.8468 13.1218 21.5271 14.9205 19.6234C15.562 19.3293 16.2199 19.0064 16.8946 18.6551C19.9061 20.2582 23.1907 21.0765 26.7481 21.1099C27.6783 24.0856 28 27.167 27.7127 30.3539Z" fill="#78ee00" fill-rule="evenodd" opacity="0.999"/>
<path d="M32.6646 20.6371C33.6743 21.0252 33.8372 21.6741 33.1531 22.5838C32.6967 22.0045 32.5338 21.3556 32.6646 20.6371Z" fill="#000000" fill-rule="evenodd" opacity="0.01"/>
<path d="M47.4644 15.807C46.4952 18.5159 46.1599 21.4336 46.4584 24.5601C45.3407 21.5029 45.1838 18.2598 45.9878 14.8307C47.0817 13.6543 47.5739 13.9797 47.4644 15.807Z" fill="#a15644" fill-rule="evenodd" opacity="0.016"/>
<path d="M46.4584 24.5601C46.787 24.5608 47.1157 24.5616 47.4443 24.5623C47.4428 25.2109 47.4413 25.8594 47.4398 26.508C46.6142 26.1737 46.287 25.5243 46.4584 24.5601Z" fill="#e25655" fill-rule="evenodd" opacity="0.012"/>
<path d="M47.4398 26.508C47.7684 26.5087 48.0971 26.5095 48.4257 26.5102C48.4242 27.1588 48.7521 27.4838 49.4094 27.4853C49.3226 28.454 49.6494 29.2654 50.3897 29.9196C45.4587 30.5569 40.5291 30.5456 35.6011 29.8856C39.8741 29.5712 44.1471 29.2567 48.4201 28.9423C47.6798 28.288 47.353 27.4766 47.4398 26.508Z" fill="#bc546c" fill-rule="evenodd" opacity="0.004"/>
<path d="M70.1336 18.7776C71.8015 25.2913 69.1627 29.5008 62.2172 31.4061C61.8894 31.0811 61.5614 30.756 61.2336 30.431C67.0542 28.7022 70.0209 24.8178 70.1336 18.7776Z" fill="#342624" fill-rule="evenodd" opacity="1"/>
<path d="M71.0993 27.5352C71.4279 27.536 71.7566 27.5367 72.0852 27.5375C71.9011 28.1889 71.5724 28.1882 71.0993 27.5352Z" fill="#cb3332" fill-rule="evenodd" opacity="0.02"/>
<path d="M16.8722 28.3833C17.8581 28.3856 18.844 28.3879 19.8299 28.3901C19.0861 32.0949 18.1002 32.0926 16.8722 28.3833Z" fill="#315f08" fill-rule="evenodd" opacity="1"/>
<path d="M70.1112 28.5058C70.4398 28.5065 70.7685 28.5073 71.0971 28.508C71.0941 29.8051 70.4353 30.4521 69.1208 30.4491C69.1216 30.1249 69.1223 29.8005 69.123 29.4763C69.7804 29.4778 70.1097 29.1543 70.1112 28.5058Z" fill="#d64032" fill-rule="evenodd" opacity="0.004"/>
<path d="M55.345 18.7436C54.2597 19.812 54.0923 21.1088 54.8431 22.6337C58.0956 24.6523 59.5677 27.5742 59.2595 31.3993C57.945 31.3963 56.6304 31.3932 55.3159 31.3902C53.0956 30.4949 51.1268 29.1933 49.4094 27.4853C48.7521 27.4838 48.4242 27.1588 48.4257 26.5102C48.5971 25.546 48.2699 24.8966 47.4443 24.5623C47.451 21.6439 47.4577 18.7254 47.4644 15.807C47.793 15.8077 48.1217 15.8085 48.4503 15.8092C47.8331 20.234 48.9744 24.1279 51.8742 27.491C52.6154 26.8839 53.4382 26.3994 54.3423 26.0374C52.8257 24.3403 52.0082 22.5549 51.8898 20.6813C51.559 21.6533 51.228 22.6254 50.8972 23.5975C50.2444 21.6503 50.2488 19.7047 50.9106 17.7605C51.8888 14.2091 54.0298 12.1063 57.3335 11.4519C55.5753 13.5253 54.9124 15.9558 55.345 18.7436Z" fill="#983732" fill-rule="evenodd" opacity="1"/>
<path d="M68.1349 30.4469C68.4635 30.4476 68.7922 30.4484 69.1208 30.4491C68.9366 31.1006 68.6079 31.0998 68.1349 30.4469Z" fill="#be403f" fill-rule="evenodd" opacity="0.016"/>
<path d="M3.06506 30.2972C3.72084 30.9473 4.37661 31.5973 5.0324 32.2474C5.03165 32.5717 5.0309 32.896 5.03016 33.2202C4.23629 34.6306 3.73961 36.2508 3.54011 38.0809C3.05562 35.5057 2.89727 32.9111 3.06506 30.2972Z" fill="#2b2f17" fill-rule="evenodd" opacity="0.007"/>
<path d="M27.7127 30.3539C27.7813 31.8395 27.1217 32.8108 25.7342 33.2678C25.6656 31.7823 26.3252 30.811 27.7127 30.3539Z" fill="#131c04" fill-rule="evenodd" opacity="0.239"/>
<path d="M67.1468 31.4174C67.4754 31.4182 67.8041 31.4189 68.1327 31.4197C67.9485 32.0711 67.6198 32.0704 67.1468 31.4174Z" fill="#cb3332" fill-rule="evenodd" opacity="0.02"/>
<path d="M53.3396 33.3313C53.3381 33.9799 53.666 34.3049 54.3233 34.3064C54.3225 34.6306 54.3218 34.955 54.321 35.2792C53.6637 35.2777 53.0065 35.2762 52.3492 35.2747C52.3507 34.6261 52.0228 34.3011 51.3655 34.2996C46.5215 33.2076 41.5923 33.0342 36.5781 33.7792C35.2015 34.706 34.5413 36.0017 34.5973 37.6659C35.242 40.0626 35.565 42.4954 35.5664 44.9643C34.6894 44.3691 33.7042 44.0426 32.6109 43.9847C30.2696 34.6426 33.8943 30.4353 43.485 31.363C47.0003 31.1946 50.2851 31.8507 53.3396 33.3313Z" fill="#6564c3" fill-rule="evenodd" opacity="0.89"/>
<path d="M53.3396 33.3313C53.6784 32.5167 54.3364 32.1938 55.3136 32.363C56.5661 33.2748 58.0435 33.9268 59.7458 34.3189C66.9737 33.3693 66.9729 33.6935 59.7435 35.2917C58.5056 35.1446 57.3561 34.8177 56.2951 34.3109C55.9665 34.3102 55.6378 34.3094 55.3092 34.3087C54.9806 34.3079 54.6519 34.3072 54.3233 34.3064C53.666 34.3049 53.3381 33.9799 53.3396 33.3313Z" fill="#d04730" fill-rule="evenodd" opacity="0.004"/>
<path d="M26.7179 34.2429C28.6282 35.7169 29.1167 37.6636 28.1833 40.0832C27.3861 38.1983 26.8976 36.2515 26.7179 34.2429Z" fill="#313131" fill-rule="evenodd" opacity="0.005"/>
<path d="M12.9085 37.1297C12.9092 36.8054 12.91 36.4811 12.9107 36.1568C15.2111 36.1621 17.5116 36.1674 19.8121 36.1727C19.8106 36.8213 20.1384 37.1463 20.7957 37.1478C19.3949 38.0698 17.751 38.3904 15.864 38.1093C15.167 37.2282 14.1818 36.9017 12.9085 37.1297Z" fill="#366c00" fill-rule="evenodd" opacity="0.996"/>
<path d="M55.3092 34.3087C55.6378 34.3094 55.9665 34.3102 56.2951 34.3109C56.8219 35.8854 57.1468 37.5076 57.2698 39.1773C60.4383 38.883 63.3953 39.2141 66.1407 40.1705C62.5105 40.323 58.8959 40.1525 55.2969 39.6592C55.6496 38.0787 55.6537 36.2952 55.3092 34.3087Z" fill="#8a5ea5" fill-rule="evenodd" opacity="0.004"/>
<path d="M51.3655 34.2996C52.0228 34.3011 52.3507 34.6261 52.3492 35.2747C52.3455 36.8961 52.3418 38.5174 52.338 40.1388C50.3397 39.9765 48.3675 40.134 46.4215 40.6116C44.272 43.1206 41.6388 44.8981 38.5219 45.944C38.1375 43.4678 38.7996 41.3615 40.5083 39.6252C43.5608 38.9378 46.5207 37.9718 49.3881 36.7271C50.6274 36.3244 51.2864 35.5153 51.3655 34.2996Z" fill="#7d7dfe" fill-rule="evenodd" opacity="1"/>
<path d="M9.94851 38.0957C10.9344 38.0979 11.9203 38.1002 12.9062 38.1025C13.1667 39.6586 12.8351 40.955 11.9114 41.9915C11.8788 39.9134 11.2245 38.6148 9.94851 38.0957Z" fill="#2a271e" fill-rule="evenodd" opacity="0.024"/>
<path d="M6.0183 32.2497C8.18168 33.8093 10.4791 35.1117 12.9107 36.1568C12.91 36.4811 12.9092 36.8054 12.9085 37.1297C11.6361 36.8959 10.6495 37.2179 9.94851 38.0957C8.58703 38.5423 7.92752 39.5136 7.96999 41.0096C9.92127 45.2585 8.60152 47.5254 4.0107 47.8103C3.72558 44.6733 4.38956 41.7564 6.00265 39.0594C5.17065 37.2008 4.84649 35.2544 5.03016 33.2202C5.68743 33.2217 6.01681 32.8983 6.0183 32.2497Z" fill="#4f2c2b" fill-rule="evenodd" opacity="0.576"/>
<path d="M25.7342 33.2678C26.0553 36.5113 26.3766 39.7548 26.6977 42.9983C26.3691 42.9976 26.0404 42.9968 25.7118 42.996C25.8616 41.973 25.6995 40.9998 25.2256 40.0764C24.8747 41.7757 24.3781 43.3959 23.7355 44.9371C23.1323 45.8025 22.8015 46.7746 22.7429 47.8533C22.7414 48.5019 22.4121 48.8254 21.7548 48.8239C21.7563 48.1753 21.7578 47.5268 21.7593 46.8783C22.4728 44.6776 22.8067 42.4085 22.7608 40.0708C22.9764 38.4381 22.3213 37.4638 20.7957 37.1478C20.1384 37.1463 19.8106 36.8213 19.8121 36.1727C22.0646 35.7156 24.0387 34.7473 25.7342 33.2678Z" fill="#191e14" fill-rule="evenodd" opacity="0.06"/>
<path d="M25.7118 42.996C26.0404 42.9968 26.3691 42.9976 26.6977 42.9983C28.0123 43.0013 29.3269 43.0044 30.6414 43.0074C30.4858 40.0706 30.6568 37.1526 31.1545 34.2531C31.6383 37.4809 31.7952 40.724 31.625 43.9825C29.4205 44.2641 27.4494 43.9353 25.7118 42.996Z" fill="#7b5192" fill-rule="evenodd" opacity="0.02"/>
<path d="M66.1407 40.1705C67.1187 40.0058 67.7753 40.3317 68.1103 41.1479C67.1323 41.3126 66.4757 40.9867 66.1407 40.1705Z" fill="#e9e926" fill-rule="evenodd" opacity="0.004"/>
<path d="M68.1103 41.1479C68.7676 41.1494 69.0955 41.4744 69.094 42.123C68.7661 41.798 68.4382 41.4729 68.1103 41.1479Z" fill="#7f807f" fill-rule="evenodd" opacity="0.008"/>
<path d="M11.9114 41.9915C11.9084 43.2885 11.9054 44.5857 11.9024 45.8828C11.1901 46.2873 10.6956 46.9347 10.4191 47.825C10.257 46.8518 10.0949 45.8786 9.93285 44.9054C10.0742 43.4177 10.7337 42.4464 11.9114 41.9915Z" fill="#180e02" fill-rule="evenodd" opacity="0.007"/>
<path d="M51.3655 34.2996C51.2864 35.5153 50.6274 36.3244 49.3881 36.7271C46.5207 37.9718 43.5608 38.9378 40.5083 39.6252C38.7996 41.3615 38.1375 43.4678 38.5219 45.944C36.7096 51.2001 35.7244 50.8736 35.5664 44.9643C35.565 42.4954 35.242 40.0626 34.5973 37.6659C34.5413 36.0017 35.2015 34.706 36.5781 33.7792C41.5923 33.0342 46.5215 33.2076 51.3655 34.2996Z" fill="#acabfd" fill-rule="evenodd" opacity="1"/>
<path d="M69.094 42.123C69.7513 42.1245 70.0791 42.4495 70.0776 43.098C69.7498 42.7731 69.4218 42.448 69.094 42.123Z" fill="#7f807f" fill-rule="evenodd" opacity="0.008"/>
<path d="M20.7957 37.1478C22.3213 37.4638 22.9764 38.4381 22.7608 40.0708C19.0874 40.3343 17.9327 42.2773 19.2967 45.8998C19.9564 46.6332 20.7772 46.9595 21.7593 46.8783C21.7578 47.5268 21.7563 48.1753 21.7548 48.8239C17.824 48.9625 16.3407 50.9048 17.3048 54.6506C18.1062 55.9393 19.255 56.5904 20.751 56.6042C20.7487 57.577 20.7465 58.5498 20.7443 59.5226C19.7612 59.4913 19.1028 59.9762 18.7691 60.9773C19.215 62.8658 20.1976 64.3273 21.7168 65.3618C22.0535 66.5133 21.3943 67.3224 19.7394 67.7893C20.2867 68.1628 20.6141 68.65 20.7219 69.2508C14.0275 66.731 11.081 61.8601 11.8823 54.6381C13.2204 49.1234 14.5476 43.6138 15.864 38.1093C17.751 38.3904 19.3949 38.0698 20.7957 37.1478Z" fill="#7cf302" fill-rule="evenodd" opacity="1"/>
<path d="M70.0776 43.098C70.9033 43.4324 71.2305 44.0817 71.0591 45.046C70.2334 44.7116 69.9062 44.0623 70.0776 43.098Z" fill="#c6c548" fill-rule="evenodd" opacity="0.012"/>
<path d="M2.05231 41.9688C2.9962 43.6876 3.32036 45.634 3.02479 47.808C2.69616 47.8072 2.36752 47.8065 2.03889 47.8057C2.04336 45.8601 2.04783 43.9145 2.05231 41.9688Z" fill="#060606" fill-rule="evenodd" opacity="0.014"/>
<path d="M22.7608 40.0708C22.8067 42.4085 22.4728 44.6776 21.7593 46.8783C20.7772 46.9595 19.9564 46.6332 19.2967 45.8998C17.9327 42.2773 19.0874 40.3343 22.7608 40.0708Z" fill="#118200" fill-rule="evenodd" opacity="0.992"/>
<path d="M70.053 53.7991C70.056 52.502 70.059 51.2048 70.062 49.9078C70.0627 49.5835 70.0635 49.2592 70.0642 48.935C70.7079 48.3619 71.3667 47.7148 72.0405 46.9939C72.3684 47.3189 72.6963 47.644 73.0242 47.9689C72.2577 51.8052 71.7558 55.6953 71.5185 59.6394C71.3352 57.4912 70.8467 55.5444 70.053 53.7991Z" fill="#3e3d11" fill-rule="evenodd" opacity="0.099"/>
<path d="M3.02479 47.808C3.35343 47.8088 3.68207 47.8095 4.0107 47.8103C4.00995 48.1345 4.00921 48.4588 4.00846 48.7831C3.68058 48.4581 3.35268 48.133 3.02479 47.808Z" fill="#000000" fill-rule="evenodd" opacity="0.004"/>
<path d="M52.3492 35.2747C53.0065 35.2762 53.6637 35.2777 54.321 35.2792C54.3166 37.2249 54.3121 39.1705 54.3076 41.1161C52.3858 41.7258 50.5761 42.6944 48.8784 44.0221C48.6258 47.348 48.1254 50.5896 47.3772 53.7469C47.0486 53.7462 46.7199 53.7454 46.3913 53.7447C44.4848 53.1084 42.5137 52.7797 40.4781 52.7582C34.8563 53.0358 32.2331 50.4355 32.6087 44.9575C32.6095 44.6333 32.6102 44.309 32.6109 43.9847C33.7042 44.0426 34.6894 44.3691 35.5664 44.9643C35.7244 50.8736 36.7096 51.2001 38.5219 45.944C41.6388 44.8981 44.272 43.1206 46.4215 40.6116C48.3675 40.134 50.3397 39.9765 52.338 40.1388C52.3418 38.5174 52.3455 36.8961 52.3492 35.2747Z" fill="#3533f0" fill-rule="evenodd" opacity="1"/>
<path d="M4.00846 48.7831C4.73725 48.6573 5.39415 48.821 5.97916 49.274C5.05404 49.9448 4.39715 49.7811 4.00846 48.7831Z" fill="#000000" fill-rule="evenodd" opacity="0.006"/>
<path d="M21.7548 48.8239C21.4202 51.4174 21.0856 54.0107 20.751 56.6042C19.255 56.5904 18.1062 55.9393 17.3048 54.6506C16.3407 50.9048 17.824 48.9625 21.7548 48.8239Z" fill="#166f03" fill-rule="evenodd" opacity="1"/>
<path d="M23.7355 44.9371C26.6933 44.9439 29.651 44.9507 32.6087 44.9575C32.2331 50.4355 34.8563 53.0358 40.4781 52.7582C39.8193 53.4053 39.1606 54.0523 38.5018 54.6993C37.5245 54.5302 36.8665 54.853 36.5277 55.6676C34.3838 55.9056 32.7385 56.8747 31.5915 58.5748C31.2629 58.574 30.9342 58.5732 30.6056 58.5725C29.4122 58.9901 28.4248 59.6363 27.6434 60.5113C27.3148 60.5106 26.9861 60.5098 26.6575 60.5091C25.0804 60.766 23.7666 60.4387 22.7161 59.5272C22.9663 53.4571 26.26 50.222 32.5975 49.8216C32.5998 48.8488 32.602 47.876 32.6042 46.9032C29.2146 46.655 25.9275 46.9718 22.7429 47.8533C22.8015 46.7746 23.1323 45.8025 23.7355 44.9371Z" fill="#ea7576" fill-rule="evenodd" opacity="1"/>
<path d="M40.4781 52.7582C42.5137 52.7797 44.4848 53.1084 46.3913 53.7447C46.3898 54.3932 46.7176 54.7182 47.3749 54.7197C48.0322 54.7213 48.3601 55.0463 48.3586 55.6948C45.1204 54.9995 41.8348 54.6676 38.5018 54.6993C39.1606 54.0523 39.8193 53.4053 40.4781 52.7582Z" fill="#0d0913" fill-rule="evenodd" opacity="1"/>
<path d="M22.7161 59.5272C22.0588 59.5257 21.4016 59.5242 20.7443 59.5226C20.7465 58.5498 20.7487 57.577 20.751 56.6042C21.0856 54.0107 21.4202 51.4174 21.7548 48.8239C22.4121 48.8254 22.7414 48.5019 22.7429 47.8533C25.9275 46.9718 29.2146 46.655 32.6042 46.9032C32.602 47.876 32.5998 48.8488 32.5975 49.8216C26.26 50.222 22.9663 53.4571 22.7161 59.5272Z" fill="#e7afae" fill-rule="evenodd" opacity="1"/>
<path d="M54.3076 41.1161C57.9378 40.9637 61.5524 41.1342 65.1515 41.6275C66.0537 41.9004 66.7099 42.3883 67.1199 43.0912C66.084 43.4825 66.0825 44.131 67.1154 45.0369C64.086 46.9701 63.4229 49.5628 65.1257 52.8149C64.7964 53.1384 64.4669 53.462 64.1376 53.7855C63.4078 52.3338 62.7539 50.873 62.1758 49.4032C56.1654 49.6042 52.8719 52.6772 52.2955 58.6224C50.9833 57.6465 49.6709 56.6707 48.3586 55.6948C48.3601 55.0463 48.0322 54.7213 47.3749 54.7197C47.3757 54.3955 47.3764 54.0712 47.3772 53.7469C48.1254 50.5896 48.6258 47.348 48.8784 44.0221C50.5761 42.6944 52.3858 41.7258 54.3076 41.1161Z" fill="#eeed98" fill-rule="evenodd" opacity="1"/>
<path d="M36.5277 55.6676C36.5288 62.5551 33.5673 64.1697 27.6434 60.5113C28.4248 59.6363 29.4122 58.9901 30.6056 58.5725C31.2756 60.205 32.5887 60.8566 34.5447 60.5272C34.6945 59.5041 34.5324 58.5309 34.0585 57.6076C33.3955 58.338 32.5732 58.6605 31.5915 58.5748C32.7385 56.8747 34.3838 55.9056 36.5277 55.6676Z" fill="#175b05" fill-rule="evenodd" opacity="1"/>
<path d="M30.6056 58.5725C30.9342 58.5732 31.2629 58.574 31.5915 58.5748C32.5732 58.6605 33.3955 58.338 34.0585 57.6076C34.5324 58.5309 34.6945 59.5041 34.5447 60.5272C32.5887 60.8566 31.2756 60.205 30.6056 58.5725Z" fill="#02de00" fill-rule="evenodd" opacity="1"/>
<path d="M67.1199 43.0912C69.127 44.4685 70.1085 46.4164 70.0642 48.935C68.749 49.2562 68.7482 49.5805 70.062 49.9078C70.059 51.2048 70.056 52.502 70.053 53.7991C70.3717 56.4539 69.7093 58.7222 68.0656 60.6043C68.2346 57.6683 68.0771 54.7494 67.5927 51.8478C66.9597 55.5892 66.1299 59.1542 65.1034 62.5431C64.4461 62.5416 63.7889 62.5401 63.1316 62.5386C58.4122 64.256 54.8002 62.9507 52.2955 58.6224C52.8719 52.6772 56.1654 49.6042 62.1758 49.4032C62.7539 50.873 63.4078 52.3338 64.1376 53.7855C64.4669 53.462 64.7964 53.1384 65.1257 52.8149C63.4229 49.5628 64.086 46.9701 67.1154 45.0369C66.0825 44.131 66.084 43.4825 67.1199 43.0912Z" fill="#e1e139" fill-rule="evenodd" opacity="1"/>
<path d="M36.5277 55.6676C36.8665 54.853 37.5245 54.5302 38.5018 54.6993C41.8348 54.6676 45.1204 54.9995 48.3586 55.6948C49.6709 56.6707 50.9833 57.6465 52.2955 58.6224C54.8002 62.9507 58.4122 64.256 63.1316 62.5386C63.0009 67.0549 60.861 68.6713 56.712 67.3879C56.2318 66.1288 56.0704 64.8312 56.228 63.4955C53.904 63.649 51.6039 63.4816 49.3277 62.9932C48.7287 60.9028 48.0762 58.7936 47.3705 56.6654C46.1964 57.9663 44.7161 58.6114 42.9294 58.6008C40.7928 57.6012 38.6588 56.6235 36.5277 55.6676Z" fill="#235d09" fill-rule="evenodd" opacity="1"/>
<path d="M49.3333 60.5612C51.3038 59.4102 52.1239 60.0607 51.7936 62.5125C51.0973 61.6543 50.2772 61.0039 49.3333 60.5612Z" fill="#02ef01" fill-rule="evenodd" opacity="1"/>
<path d="M36.5277 55.6676C38.6588 56.6235 40.7928 57.6012 42.9294 58.6008C44.7161 58.6114 46.1964 57.9663 47.3705 56.6654C48.0762 58.7936 48.7287 60.9028 49.3277 62.9932C51.6039 63.4816 53.904 63.649 56.228 63.4955C56.0704 64.8312 56.2318 66.1288 56.712 67.3879C60.861 68.6713 63.0009 67.0549 63.1316 62.5386C63.7889 62.5401 64.4461 62.5416 65.1034 62.5431C61.7072 71.8279 56.1167 73.4365 48.3318 67.3687C47.6775 66.0701 46.6938 65.095 45.3808 64.4434C45.273 63.8425 44.9455 63.3554 44.3982 62.9819C38.0208 62.9128 32.7571 65.3327 28.6069 70.2418C28.2783 70.241 27.9496 70.2403 27.621 70.2395C25.0971 70.5271 22.7974 70.1975 20.7219 69.2508C20.6141 68.65 20.2867 68.1628 19.7394 67.7893C21.3943 67.3224 22.0535 66.5133 21.7168 65.3618C25.6589 66.0195 27.3058 64.4019 26.6575 60.5091C26.9861 60.5098 27.3148 60.5106 27.6434 60.5113C33.5673 64.1697 36.5288 62.5551 36.5277 55.6676ZM46.36 67.3641C43.4052 66.0603 40.4475 66.0535 37.4868 67.3437C38.4681 65.861 39.9485 65.2158 41.9279 65.4083C43.9081 65.2249 45.3855 65.8769 46.36 67.3641ZM46.36 67.3641C47.0173 67.3656 47.6745 67.3672 48.3318 67.3687C48.6589 68.018 48.9861 68.6672 49.3132 69.3166C48.6559 69.3151 47.9987 69.3136 47.3414 69.312C47.0143 68.6627 46.6871 68.0135 46.36 67.3641Z" fill="#7bef02" fill-rule="evenodd" opacity="1"/>
<path d="M11.8823 54.6381C11.081 61.8601 14.0275 66.731 20.7219 69.2508C22.7974 70.1975 25.0971 70.5271 27.621 70.2395C20.3357 72.721 14.9185 70.4385 11.3692 63.3924C10.5832 60.2809 10.7542 57.3629 11.8823 54.6381Z" fill="#a8b427" fill-rule="evenodd" opacity="0.992"/>
<path d="M20.7443 59.5226C21.4016 59.5242 22.0588 59.5257 22.7161 59.5272C23.7666 60.4387 25.0804 60.766 26.6575 60.5091C27.3058 64.4019 25.6589 66.0195 21.7168 65.3618C20.1976 64.3273 19.215 62.8658 18.7691 60.9773C19.1028 59.9762 19.7612 59.4913 20.7443 59.5226Z" fill="#176502" fill-rule="evenodd" opacity="1"/>
<path d="M45.3808 64.4434C46.6938 65.095 47.6775 66.0701 48.3318 67.3687C47.6745 67.3672 47.0173 67.3656 46.36 67.3641C45.3855 65.8769 43.9081 65.2249 41.9279 65.4083C39.9485 65.2158 38.4681 65.861 37.4868 67.3437C36.8295 67.3422 36.1723 67.3407 35.515 67.3392C37.9509 63.6641 41.2395 62.6989 45.3808 64.4434ZM46.36 67.3641C43.4052 66.0603 40.4475 66.0535 37.4868 67.3437C38.4681 65.861 39.9485 65.2158 41.9279 65.4083C43.9081 65.2249 45.3855 65.8769 46.36 67.3641Z" fill="#171406" fill-rule="evenodd" opacity="0.308"/>
<path d="M66.0759 68.3823C66.0773 67.7337 66.0788 67.0852 66.0803 66.4367C68.7304 65.8974 68.7289 66.546 66.0759 68.3823Z" fill="#1e1c09" fill-rule="evenodd" opacity="0.01"/>
<path d="M12.9062 38.1025C12.907 37.7782 12.9077 37.4539 12.9085 37.1297C14.1818 36.9017 15.167 37.2282 15.864 38.1093C14.5476 43.6138 13.2204 49.1234 11.8823 54.6381C10.7542 57.3629 10.5832 60.2809 11.3692 63.3924C14.9185 70.4385 20.3357 72.721 27.621 70.2395C27.9496 70.2403 28.2783 70.241 28.6069 70.2418C31.0534 69.5256 33.3561 68.5581 35.515 67.3392C35.5142 67.6634 35.5135 67.9878 35.5127 68.312C34.8554 68.3105 34.5261 68.634 34.5246 69.2826C33.8673 69.2811 33.538 69.6045 33.5365 70.2531C32.8083 70.124 32.1506 70.2847 31.5635 70.735C32.3038 71.3893 32.6307 72.2007 32.5438 73.1693C30.6568 72.8882 29.0129 73.2088 27.6121 74.1308C25.6403 74.1263 23.6684 74.1217 21.6966 74.1172C19.2854 73.165 16.657 72.8347 13.8116 73.1262C13.276 71.2829 12.2938 69.6592 10.8651 68.2554C11.0727 67.6858 11.4025 67.2001 11.8543 66.7984C10.09 64.1479 9.11083 61.2271 8.91675 58.0362C9.81504 53.9507 10.8103 49.8996 11.9024 45.8828C13.7939 43.4161 14.1284 40.8227 12.9062 38.1025Z" fill="#171509" fill-rule="evenodd" opacity="0.492"/>
<path d="M45.3808 64.4434C41.2395 62.6989 37.9509 63.6641 35.515 67.3392C33.3561 68.5581 31.0534 69.5256 28.6069 70.2418C32.7571 65.3327 38.0208 62.9128 44.3982 62.9819C44.9455 63.3554 45.273 63.8425 45.3808 64.4434Z" fill="#899420" fill-rule="evenodd" opacity="1"/>
<path d="M65.09 68.38C65.4186 68.3808 65.7473 68.3815 66.0759 68.3823C65.8917 69.0338 65.563 69.033 65.09 68.38Z" fill="#000000" fill-rule="evenodd" opacity="0.016"/>
<path d="M35.5127 68.312C37.7715 69.0967 37.4414 69.7446 34.5224 70.2554C34.5231 69.9312 34.5239 69.6068 34.5246 69.2826C35.1819 69.2841 35.5113 68.9606 35.5127 68.312Z" fill="#1f1d0d" fill-rule="evenodd" opacity="0.012"/>
<path d="M33.5365 70.2531C33.8651 70.2539 34.1938 70.2546 34.5224 70.2554C34.3382 70.9069 34.0095 70.9061 33.5365 70.2531Z" fill="#000000" fill-rule="evenodd" opacity="0.02"/>
<path d="M68.0656 60.6043C67.4038 62.5484 66.7421 64.4925 66.0803 66.4367C65.2532 66.7672 64.923 67.415 65.09 68.38C63.9216 69.3545 62.6052 70.1622 61.1407 70.803C63.0502 70.9257 64.3628 71.7395 65.0788 73.2441C63.1917 72.963 61.5478 73.2836 60.147 74.2056C59.4897 74.2041 58.8325 74.2026 58.1752 74.2011C54.7621 73.6956 51.478 72.7153 48.3228 71.26C47.9957 70.6106 47.6685 69.9614 47.3414 69.312C47.9987 69.3136 48.6559 69.3151 49.3132 69.3166C48.9861 68.6672 48.6589 68.018 48.3318 67.3687C56.1167 73.4365 61.7072 71.8279 65.1034 62.5431C66.1299 59.1542 66.9597 55.5892 67.5927 51.8478C68.0771 54.7494 68.2346 57.6683 68.0656 60.6043Z" fill="#151408" fill-rule="evenodd" opacity="0.533"/>
<path d="M66.0647 73.2464C65.9372 72.5273 66.103 71.8791 66.5621 71.3019C67.242 72.2148 67.0761 72.8629 66.0647 73.2464Z" fill="#000000" fill-rule="evenodd" opacity="0.004"/>
<path d="M13.8116 73.1262C13.8109 73.4505 13.8101 73.7748 13.8094 74.0991C13.1498 73.6293 13.1505 73.305 13.8116 73.1262Z" fill="#000000" fill-rule="evenodd" opacity="0.004"/>
<path d="M32.5438 73.1693C32.8724 73.1701 33.2011 73.1708 33.5297 73.1716C33.529 73.4958 33.5283 73.8202 33.5275 74.1444C33.1997 73.8194 32.8717 73.4943 32.5438 73.1693Z" fill="#000000" fill-rule="evenodd" opacity="0.004"/>
<path d="M65.0788 73.2441C65.4074 73.2449 65.7361 73.2456 66.0647 73.2464C66.0639 73.5706 66.0632 73.895 66.0624 74.2192C65.7346 73.8942 65.4066 73.5691 65.0788 73.2441Z" fill="#000000" fill-rule="evenodd" opacity="0.004"/>
</g>
</svg>