<?xml version="1.0" encoding="iso-8859-1"?>
<!-- Generator: Adobe Illustrator 19.0.0, SVG Export Plug-In . SVG Version: 6.00 Build 0)  -->
<svg version="1.1" id="Capa_1" xmlns="http://www.w3.org/2000/svg" xmlns:xlink="http://www.w3.org/1999/xlink" x="0px" y="0px"
	 viewBox="0 0 502.707 502.707" style="enable-background:new 0 0 502.707 502.707;" xml:space="preserve">
<g>
	<g>
		<path style="fill:#010002;" d="M355.249,225.932l64.303-62.469h-90.08V0h-156.28v163.463H83.177l64.281,62.469
			c-73.923,13.676-124.614,41.373-124.614,73.405v120.818c0,45.579,102.31,82.551,228.499,82.551
			c126.232,0,228.521-36.972,228.521-82.551V299.338C479.864,267.305,429.172,239.608,355.249,225.932z M251.343,365.323
			c-100.8,0-182.618-29.509-182.618-66.007c0-24.893,38.31-46.571,94.804-57.81l87.815,85.356l87.858-85.356
			c56.472,11.217,94.76,32.895,94.76,57.81C433.939,335.792,352.251,365.323,251.343,365.323z"/>
	</g>
	<g>
	</g>
	<g>
	</g>
	<g>
	</g>
	<g>
	</g>
	<g>
	</g>
	<g>
	</g>
	<g>
	</g>
	<g>
	</g>
	<g>
	</g>
	<g>
	</g>
	<g>
	</g>
	<g>
	</g>
	<g>
	</g>
	<g>
	</g>
	<g>
	</g>
</g>
<g>
</g>
<g>
</g>
<g>
</g>
<g>
</g>
<g>
</g>
<g>
</g>
<g>
</g>
<g>
</g>
<g>
</g>
<g>
</g>
<g>
</g>
<g>
</g>
<g>
</g>
<g>
</g>
<g>
</g>
</svg>
